<svg xmlns="http://www.w3.org/2000/svg" version="1.1" xmlns:xlink="http://www.w3.org/1999/xlink" xmlns:svgjs="http://svgjs.dev/svgjs" width="1440" height="560" preserveAspectRatio="none" viewBox="0 0 1440 560"><g mask="url(&quot;#SvgjsMask1014&quot;)" fill="none"><rect width="1440" height="560" x="0" y="0" fill="rgba(223, 223, 225, 1)"></rect><path d="M-70 409.14L-70 409.14" stroke="#132e65" stroke-width="1.5"></path><path d="M-70 409.14L87.19 345.77" stroke="#132e65" stroke-width="1.5"></path><path d="M-70 409.14L103.17 553.08" stroke="#132e65" stroke-width="1.5"></path><path d="M-70 409.14L-105.3 651.31" stroke="#132e65" stroke-width="1.5"></path><path d="M-70 409.14L218.46 348.34" stroke="#132e65" stroke-width="1.5"></path><path d="M-105.3 651.31L-105.3 651.31" stroke="#132e65" stroke-width="1.5"></path><path d="M-105.3 651.31L77.04 683.72" stroke="#132e65" stroke-width="1.5"></path><path d="M-105.3 651.31L103.17 553.08" stroke="#132e65" stroke-width="1.5"></path><path d="M-105.3 651.31L237.25 544.55" stroke="#132e65" stroke-width="1.5"></path><path d="M-105.3 651.31L253.46 689.45" stroke="#132e65" stroke-width="1.5"></path><path d="M87.19 345.77L87.19 345.77" stroke="#132e65" stroke-width="1.5"></path><path d="M87.19 345.77L218.46 348.34" stroke="#132e65" stroke-width="1.5"></path><path d="M87.19 345.77L103.17 553.08" stroke="#132e65" stroke-width="1.5"></path><path d="M87.19 345.77L237.25 544.55" stroke="#132e65" stroke-width="1.5"></path><path d="M87.19 345.77L352.29 378.29" stroke="#132e65" stroke-width="1.5"></path><path d="M87.19 345.77L376.26 510.83" stroke="#132e65" stroke-width="1.5"></path><path d="M103.17 553.08L103.17 553.08" stroke="#132e65" stroke-width="1.5"></path><path d="M103.17 553.08L77.04 683.72" stroke="#132e65" stroke-width="1.5"></path><path d="M103.17 553.08L237.25 544.55" stroke="#132e65" stroke-width="1.5"></path><path d="M103.17 553.08L253.46 689.45" stroke="#132e65" stroke-width="1.5"></path><path d="M77.04 683.72L77.04 683.72" stroke="#132e65" stroke-width="1.5"></path><path d="M77.04 683.72L253.46 689.45" stroke="#132e65" stroke-width="1.5"></path><path d="M218.46 348.34L218.46 348.34" stroke="#132e65" stroke-width="1.5"></path><path d="M218.46 348.34L352.29 378.29" stroke="#132e65" stroke-width="1.5"></path><path d="M237.25 544.55L237.25 544.55" stroke="#132e65" stroke-width="1.5"></path><path d="M237.25 544.55L376.26 510.83" stroke="#132e65" stroke-width="1.5"></path><path d="M237.25 544.55L253.46 689.45" stroke="#132e65" stroke-width="1.5"></path><path d="M237.25 544.55L218.46 348.34" stroke="#132e65" stroke-width="1.5"></path><path d="M237.25 544.55L352.29 378.29" stroke="#132e65" stroke-width="1.5"></path><path d="M253.46 689.45L253.46 689.45" stroke="#132e65" stroke-width="1.5"></path><path d="M253.46 689.45L358.25 706.53" stroke="#132e65" stroke-width="1.5"></path><path d="M352.29 378.29L352.29 378.29" stroke="#132e65" stroke-width="1.5"></path><path d="M352.29 378.29L376.26 510.83" stroke="#132e65" stroke-width="1.5"></path><path d="M376.26 510.83L376.26 510.83" stroke="#132e65" stroke-width="1.5"></path><path d="M376.26 510.83L532.04 497.79" stroke="#132e65" stroke-width="1.5"></path><path d="M376.26 510.83L358.25 706.53" stroke="#132e65" stroke-width="1.5"></path><path d="M376.26 510.83L553.79 400.64" stroke="#132e65" stroke-width="1.5"></path><path d="M376.26 510.83L253.46 689.45" stroke="#132e65" stroke-width="1.5"></path><path d="M358.25 706.53L358.25 706.53" stroke="#132e65" stroke-width="1.5"></path><path d="M358.25 706.53L531.91 687.76" stroke="#132e65" stroke-width="1.5"></path><path d="M553.79 400.64L553.79 400.64" stroke="#132e65" stroke-width="1.5"></path><path d="M553.79 400.64L532.04 497.79" stroke="#132e65" stroke-width="1.5"></path><path d="M553.79 400.64L659.57 363.29" stroke="#132e65" stroke-width="1.5"></path><path d="M553.79 400.64L708.8 524.91" stroke="#132e65" stroke-width="1.5"></path><path d="M532.04 497.79L532.04 497.79" stroke="#132e65" stroke-width="1.5"></path><path d="M532.04 497.79L708.8 524.91" stroke="#132e65" stroke-width="1.5"></path><path d="M532.04 497.79L659.57 363.29" stroke="#132e65" stroke-width="1.5"></path><path d="M532.04 497.79L531.91 687.76" stroke="#132e65" stroke-width="1.5"></path><path d="M532.04 497.79L661.99 646.82" stroke="#132e65" stroke-width="1.5"></path><path d="M531.91 687.76L531.91 687.76" stroke="#132e65" stroke-width="1.5"></path><path d="M531.91 687.76L661.99 646.82" stroke="#132e65" stroke-width="1.5"></path><path d="M684.57 220.16L684.57 220.16" stroke="#132e65" stroke-width="1.5"></path><path d="M684.57 220.16L659.57 363.29" stroke="#132e65" stroke-width="1.5"></path><path d="M684.57 220.16L851.29 204.39" stroke="#132e65" stroke-width="1.5"></path><path d="M684.57 220.16L553.79 400.64" stroke="#132e65" stroke-width="1.5"></path><path d="M659.57 363.29L659.57 363.29" stroke="#132e65" stroke-width="1.5"></path><path d="M659.57 363.29L708.8 524.91" stroke="#132e65" stroke-width="1.5"></path><path d="M708.8 524.91L708.8 524.91" stroke="#132e65" stroke-width="1.5"></path><path d="M708.8 524.91L797.28 492.11" stroke="#132e65" stroke-width="1.5"></path><path d="M708.8 524.91L661.99 646.82" stroke="#132e65" stroke-width="1.5"></path><path d="M708.8 524.91L852.29 639.57" stroke="#132e65" stroke-width="1.5"></path><path d="M708.8 524.91L855.49 399.35" stroke="#132e65" stroke-width="1.5"></path><path d="M661.99 646.82L661.99 646.82" stroke="#132e65" stroke-width="1.5"></path><path d="M661.99 646.82L852.29 639.57" stroke="#132e65" stroke-width="1.5"></path><path d="M661.99 646.82L797.28 492.11" stroke="#132e65" stroke-width="1.5"></path><path d="M661.99 646.82L553.79 400.64" stroke="#132e65" stroke-width="1.5"></path><path d="M851.29 204.39L851.29 204.39" stroke="#132e65" stroke-width="1.5"></path><path d="M851.29 204.39L948.95 203.37" stroke="#132e65" stroke-width="1.5"></path><path d="M851.29 204.39L962.36 61.89" stroke="#132e65" stroke-width="1.5"></path><path d="M851.29 204.39L855.49 399.35" stroke="#132e65" stroke-width="1.5"></path><path d="M851.29 204.39L1009.09 353.15" stroke="#132e65" stroke-width="1.5"></path><path d="M851.29 204.39L659.57 363.29" stroke="#132e65" stroke-width="1.5"></path><path d="M855.49 399.35L855.49 399.35" stroke="#132e65" stroke-width="1.5"></path><path d="M855.49 399.35L797.28 492.11" stroke="#132e65" stroke-width="1.5"></path><path d="M855.49 399.35L1009.09 353.15" stroke="#132e65" stroke-width="1.5"></path><path d="M855.49 399.35L1009.89 522.2" stroke="#132e65" stroke-width="1.5"></path><path d="M797.28 492.11L797.28 492.11" stroke="#132e65" stroke-width="1.5"></path><path d="M797.28 492.11L852.29 639.57" stroke="#132e65" stroke-width="1.5"></path><path d="M797.28 492.11L659.57 363.29" stroke="#132e65" stroke-width="1.5"></path><path d="M797.28 492.11L1009.89 522.2" stroke="#132e65" stroke-width="1.5"></path><path d="M852.29 639.57L852.29 639.57" stroke="#132e65" stroke-width="1.5"></path><path d="M852.29 639.57L993.48 656.73" stroke="#132e65" stroke-width="1.5"></path><path d="M946.64 -72.02L946.64 -72.02" stroke="#132e65" stroke-width="1.5"></path><path d="M946.64 -72.02L962.36 61.89" stroke="#132e65" stroke-width="1.5"></path><path d="M946.64 -72.02L1091.63 45.97" stroke="#132e65" stroke-width="1.5"></path><path d="M946.64 -72.02L1160.09 -64.88" stroke="#132e65" stroke-width="1.5"></path><path d="M962.36 61.89L962.36 61.89" stroke="#132e65" stroke-width="1.5"></path><path d="M962.36 61.89L1091.63 45.97" stroke="#132e65" stroke-width="1.5"></path><path d="M962.36 61.89L948.95 203.37" stroke="#132e65" stroke-width="1.5"></path><path d="M962.36 61.89L1160.09 -64.88" stroke="#132e65" stroke-width="1.5"></path><path d="M962.36 61.89L1146.91 259.16" stroke="#132e65" stroke-width="1.5"></path><path d="M948.95 203.37L948.95 203.37" stroke="#132e65" stroke-width="1.5"></path><path d="M948.95 203.37L1009.09 353.15" stroke="#132e65" stroke-width="1.5"></path><path d="M948.95 203.37L1146.91 259.16" stroke="#132e65" stroke-width="1.5"></path><path d="M1009.09 353.15L1009.09 353.15" stroke="#132e65" stroke-width="1.5"></path><path d="M1009.09 353.15L1145.06 349.79" stroke="#132e65" stroke-width="1.5"></path><path d="M1009.89 522.2L1009.89 522.2" stroke="#132e65" stroke-width="1.5"></path><path d="M1009.89 522.2L1142.66 500.66" stroke="#132e65" stroke-width="1.5"></path><path d="M1009.89 522.2L993.48 656.73" stroke="#132e65" stroke-width="1.5"></path><path d="M1009.89 522.2L1106.69 656.99" stroke="#132e65" stroke-width="1.5"></path><path d="M1009.89 522.2L1009.09 353.15" stroke="#132e65" stroke-width="1.5"></path><path d="M993.48 656.73L993.48 656.73" stroke="#132e65" stroke-width="1.5"></path><path d="M993.48 656.73L1106.69 656.99" stroke="#132e65" stroke-width="1.5"></path><path d="M1160.09 -64.88L1160.09 -64.88" stroke="#132e65" stroke-width="1.5"></path><path d="M1160.09 -64.88L1281.46 -54.52" stroke="#132e65" stroke-width="1.5"></path><path d="M1160.09 -64.88L1091.63 45.97" stroke="#132e65" stroke-width="1.5"></path><path d="M1091.63 45.97L1091.63 45.97" stroke="#132e65" stroke-width="1.5"></path><path d="M1091.63 45.97L948.95 203.37" stroke="#132e65" stroke-width="1.5"></path><path d="M1091.63 45.97L1281.46 -54.52" stroke="#132e65" stroke-width="1.5"></path><path d="M1146.91 259.16L1146.91 259.16" stroke="#132e65" stroke-width="1.5"></path><path d="M1146.91 259.16L1145.06 349.79" stroke="#132e65" stroke-width="1.5"></path><path d="M1146.91 259.16L1241.49 211.68" stroke="#132e65" stroke-width="1.5"></path><path d="M1146.91 259.16L1009.09 353.15" stroke="#132e65" stroke-width="1.5"></path><path d="M1146.91 259.16L1305.87 355.59" stroke="#132e65" stroke-width="1.5"></path><path d="M1145.06 349.79L1145.06 349.79" stroke="#132e65" stroke-width="1.5"></path><path d="M1145.06 349.79L1142.66 500.66" stroke="#132e65" stroke-width="1.5"></path><path d="M1142.66 500.66L1142.66 500.66" stroke="#132e65" stroke-width="1.5"></path><path d="M1142.66 500.66L1265.64 497.94" stroke="#132e65" stroke-width="1.5"></path><path d="M1106.69 656.99L1106.69 656.99" stroke="#132e65" stroke-width="1.5"></path><path d="M1106.69 656.99L1251.04 676.3" stroke="#132e65" stroke-width="1.5"></path><path d="M1106.69 656.99L1142.66 500.66" stroke="#132e65" stroke-width="1.5"></path><path d="M1281.46 -54.52L1281.46 -54.52" stroke="#132e65" stroke-width="1.5"></path><path d="M1281.46 -54.52L1390.43 -43.3" stroke="#132e65" stroke-width="1.5"></path><path d="M1241.49 211.68L1241.49 211.68" stroke="#132e65" stroke-width="1.5"></path><path d="M1241.49 211.68L1305.87 355.59" stroke="#132e65" stroke-width="1.5"></path><path d="M1241.49 211.68L1145.06 349.79" stroke="#132e65" stroke-width="1.5"></path><path d="M1305.87 355.59L1305.87 355.59" stroke="#132e65" stroke-width="1.5"></path><path d="M1305.87 355.59L1423.74 340.31" stroke="#132e65" stroke-width="1.5"></path><path d="M1305.87 355.59L1265.64 497.94" stroke="#132e65" stroke-width="1.5"></path><path d="M1305.87 355.59L1145.06 349.79" stroke="#132e65" stroke-width="1.5"></path><path d="M1305.87 355.59L1414.6 189.73" stroke="#132e65" stroke-width="1.5"></path><path d="M1265.64 497.94L1265.64 497.94" stroke="#132e65" stroke-width="1.5"></path><path d="M1265.64 497.94L1436.65 509.01" stroke="#132e65" stroke-width="1.5"></path><path d="M1265.64 497.94L1251.04 676.3" stroke="#132e65" stroke-width="1.5"></path><path d="M1251.04 676.3L1251.04 676.3" stroke="#132e65" stroke-width="1.5"></path><path d="M1251.04 676.3L1438.48 668.26" stroke="#132e65" stroke-width="1.5"></path><path d="M1251.04 676.3L1142.66 500.66" stroke="#132e65" stroke-width="1.5"></path><path d="M1390.43 -43.3L1390.43 -43.3" stroke="#132e65" stroke-width="1.5"></path><path d="M1390.43 -43.3L1450.08 65.51" stroke="#132e65" stroke-width="1.5"></path><path d="M1390.43 -43.3L1580.83 -99.52" stroke="#132e65" stroke-width="1.5"></path><path d="M1450.08 65.51L1450.08 65.51" stroke="#132e65" stroke-width="1.5"></path><path d="M1450.08 65.51L1569.78 68.62" stroke="#132e65" stroke-width="1.5"></path><path d="M1414.6 189.73L1414.6 189.73" stroke="#132e65" stroke-width="1.5"></path><path d="M1414.6 189.73L1450.08 65.51" stroke="#132e65" stroke-width="1.5"></path><path d="M1414.6 189.73L1539.97 227.76" stroke="#132e65" stroke-width="1.5"></path><path d="M1414.6 189.73L1423.74 340.31" stroke="#132e65" stroke-width="1.5"></path><path d="M1414.6 189.73L1241.49 211.68" stroke="#132e65" stroke-width="1.5"></path><path d="M1414.6 189.73L1569.78 68.62" stroke="#132e65" stroke-width="1.5"></path><path d="M1423.74 340.31L1423.74 340.31" stroke="#132e65" stroke-width="1.5"></path><path d="M1436.65 509.01L1436.65 509.01" stroke="#132e65" stroke-width="1.5"></path><path d="M1436.65 509.01L1560.88 490.57" stroke="#132e65" stroke-width="1.5"></path><path d="M1436.65 509.01L1438.48 668.26" stroke="#132e65" stroke-width="1.5"></path><path d="M1436.65 509.01L1423.74 340.31" stroke="#132e65" stroke-width="1.5"></path><path d="M1436.65 509.01L1305.87 355.59" stroke="#132e65" stroke-width="1.5"></path><path d="M1436.65 509.01L1572.77 692.96" stroke="#132e65" stroke-width="1.5"></path><path d="M1438.48 668.26L1438.48 668.26" stroke="#132e65" stroke-width="1.5"></path><path d="M1438.48 668.26L1572.77 692.96" stroke="#132e65" stroke-width="1.5"></path><path d="M1580.83 -99.52L1580.83 -99.52" stroke="#132e65" stroke-width="1.5"></path><path d="M1580.83 -99.52L1569.78 68.62" stroke="#132e65" stroke-width="1.5"></path><path d="M1580.83 -99.52L1450.08 65.51" stroke="#132e65" stroke-width="1.5"></path><path d="M1580.83 -99.52L1281.46 -54.52" stroke="#132e65" stroke-width="1.5"></path><path d="M1580.83 -99.52L1539.97 227.76" stroke="#132e65" stroke-width="1.5"></path><path d="M1580.83 -99.52L1414.6 189.73" stroke="#132e65" stroke-width="1.5"></path><path d="M1569.78 68.62L1569.78 68.62" stroke="#132e65" stroke-width="1.5"></path><path d="M1569.78 68.62L1539.97 227.76" stroke="#132e65" stroke-width="1.5"></path><path d="M1569.78 68.62L1390.43 -43.3" stroke="#132e65" stroke-width="1.5"></path><path d="M1569.78 68.62L1607.76 349.15" stroke="#132e65" stroke-width="1.5"></path><path d="M1539.97 227.76L1539.97 227.76" stroke="#132e65" stroke-width="1.5"></path><path d="M1539.97 227.76L1607.76 349.15" stroke="#132e65" stroke-width="1.5"></path><path d="M1539.97 227.76L1423.74 340.31" stroke="#132e65" stroke-width="1.5"></path><path d="M1607.76 349.15L1607.76 349.15" stroke="#132e65" stroke-width="1.5"></path><path d="M1607.76 349.15L1560.88 490.57" stroke="#132e65" stroke-width="1.5"></path><path d="M1607.76 349.15L1423.74 340.31" stroke="#132e65" stroke-width="1.5"></path><path d="M1607.76 349.15L1436.65 509.01" stroke="#132e65" stroke-width="1.5"></path><path d="M1560.88 490.57L1560.88 490.57" stroke="#132e65" stroke-width="1.5"></path><path d="M1572.77 692.96L1572.77 692.96" stroke="#132e65" stroke-width="1.5"></path><circle r="5" cx="-70" cy="409.14" fill="#132e65"></circle><circle r="5" cx="-105.3" cy="651.31" fill="#132e65"></circle><circle r="5" cx="87.19" cy="345.77" fill="#132e65"></circle><circle r="5" cx="103.17" cy="553.08" fill="#132e65"></circle><circle r="5" cx="77.04" cy="683.72" fill="#132e65"></circle><circle r="5" cx="218.46" cy="348.34" fill="#132e65"></circle><circle r="5" cx="237.25" cy="544.55" fill="#132e65"></circle><circle r="5" cx="253.46" cy="689.45" fill="#132e65"></circle><circle r="5" cx="352.29" cy="378.29" fill="#132e65"></circle><circle r="5" cx="376.26" cy="510.83" fill="#132e65"></circle><circle r="5" cx="358.25" cy="706.53" fill="#132e65"></circle><circle r="5" cx="553.79" cy="400.64" fill="#132e65"></circle><circle r="5" cx="532.04" cy="497.79" fill="#132e65"></circle><circle r="5" cx="531.91" cy="687.76" fill="#132e65"></circle><circle r="5" cx="684.57" cy="220.16" fill="#132e65"></circle><circle r="5" cx="659.57" cy="363.29" fill="#132e65"></circle><circle r="5" cx="708.8" cy="524.91" fill="#132e65"></circle><circle r="5" cx="661.99" cy="646.82" fill="#132e65"></circle><circle r="5" cx="851.29" cy="204.39" fill="#132e65"></circle><circle r="5" cx="855.49" cy="399.35" fill="#132e65"></circle><circle r="5" cx="797.28" cy="492.11" fill="#132e65"></circle><circle r="5" cx="852.29" cy="639.57" fill="#132e65"></circle><circle r="5" cx="946.64" cy="-72.02" fill="#132e65"></circle><circle r="5" cx="962.36" cy="61.89" fill="#132e65"></circle><circle r="5" cx="948.95" cy="203.37" fill="#132e65"></circle><circle r="5" cx="1009.09" cy="353.15" fill="#132e65"></circle><circle r="5" cx="1009.89" cy="522.2" fill="#132e65"></circle><circle r="5" cx="993.48" cy="656.73" fill="#132e65"></circle><circle r="5" cx="1160.09" cy="-64.88" fill="#132e65"></circle><circle r="5" cx="1091.63" cy="45.97" fill="#132e65"></circle><circle r="5" cx="1146.91" cy="259.16" fill="#132e65"></circle><circle r="5" cx="1145.06" cy="349.79" fill="#132e65"></circle><circle r="5" cx="1142.66" cy="500.66" fill="#132e65"></circle><circle r="5" cx="1106.69" cy="656.99" fill="#132e65"></circle><circle r="5" cx="1281.46" cy="-54.52" fill="#132e65"></circle><circle r="5" cx="1241.49" cy="211.68" fill="#132e65"></circle><circle r="5" cx="1305.87" cy="355.59" fill="#132e65"></circle><circle r="5" cx="1265.64" cy="497.94" fill="#132e65"></circle><circle r="5" cx="1251.04" cy="676.3" fill="#132e65"></circle><circle r="5" cx="1390.43" cy="-43.3" fill="#132e65"></circle><circle r="5" cx="1450.08" cy="65.51" fill="#132e65"></circle><circle r="5" cx="1414.6" cy="189.73" fill="#132e65"></circle><circle r="5" cx="1423.74" cy="340.31" fill="#132e65"></circle><circle r="5" cx="1436.65" cy="509.01" fill="#132e65"></circle><circle r="5" cx="1438.48" cy="668.26" fill="#132e65"></circle><circle r="5" cx="1580.83" cy="-99.52" fill="#132e65"></circle><circle r="5" cx="1569.78" cy="68.62" fill="#132e65"></circle><circle r="5" cx="1539.97" cy="227.76" fill="#132e65"></circle><circle r="5" cx="1607.76" cy="349.15" fill="#132e65"></circle><circle r="5" cx="1560.88" cy="490.57" fill="#132e65"></circle><circle r="5" cx="1572.77" cy="692.96" fill="#132e65"></circle><path d="M489.82 639.11L489.82 639.11" stroke="hsla(237, 53.3%, 38.2%, 0.97)" stroke-width="1.5"></path><path d="M489.82 639.11L518.13 532.65" stroke="hsla(237, 53.3%, 38.2%, 0.97)" stroke-width="1.5"></path><path d="M654.64 561.32L654.64 561.32" stroke="hsla(237, 53.3%, 38.2%, 0.97)" stroke-width="1.5"></path><path d="M654.64 561.32L518.13 532.65" stroke="hsla(237, 53.3%, 38.2%, 0.97)" stroke-width="1.5"></path><path d="M654.64 561.32L695.78 708.78" stroke="hsla(237, 53.3%, 38.2%, 0.97)" stroke-width="1.5"></path><path d="M654.64 561.32L824.08 561.36" stroke="hsla(237, 53.3%, 38.2%, 0.97)" stroke-width="1.5"></path><path d="M654.64 561.32L489.82 639.11" stroke="hsla(237, 53.3%, 38.2%, 0.97)" stroke-width="1.5"></path><path d="M654.64 561.32L826.38 664.47" stroke="hsla(237, 53.3%, 38.2%, 0.97)" stroke-width="1.5"></path><path d="M695.78 708.78L695.78 708.78" stroke="hsla(237, 53.3%, 38.2%, 0.97)" stroke-width="1.5"></path><path d="M695.78 708.78L826.38 664.47" stroke="hsla(237, 53.3%, 38.2%, 0.97)" stroke-width="1.5"></path><path d="M695.78 708.78L824.08 561.36" stroke="hsla(237, 53.3%, 38.2%, 0.97)" stroke-width="1.5"></path><path d="M695.78 708.78L489.82 639.11" stroke="hsla(237, 53.3%, 38.2%, 0.97)" stroke-width="1.5"></path><path d="M695.78 708.78L938.97 673.48" stroke="hsla(237, 53.3%, 38.2%, 0.97)" stroke-width="1.5"></path><path d="M695.78 708.78L518.13 532.65" stroke="hsla(237, 53.3%, 38.2%, 0.97)" stroke-width="1.5"></path><path d="M814.04 408.06L814.04 408.06" stroke="hsla(237, 53.3%, 38.2%, 0.97)" stroke-width="1.5"></path><path d="M814.04 408.06L824.08 561.36" stroke="hsla(237, 53.3%, 38.2%, 0.97)" stroke-width="1.5"></path><path d="M814.04 408.06L951.59 505.3" stroke="hsla(237, 53.3%, 38.2%, 0.97)" stroke-width="1.5"></path><path d="M814.04 408.06L986.67 353.09" stroke="hsla(237, 53.3%, 38.2%, 0.97)" stroke-width="1.5"></path><path d="M814.04 408.06L654.64 561.32" stroke="hsla(237, 53.3%, 38.2%, 0.97)" stroke-width="1.5"></path><path d="M814.04 408.06L989.09 245.01" stroke="hsla(237, 53.3%, 38.2%, 0.97)" stroke-width="1.5"></path><path d="M814.04 408.06L826.38 664.47" stroke="hsla(237, 53.3%, 38.2%, 0.97)" stroke-width="1.5"></path><path d="M826.38 664.47L826.38 664.47" stroke="hsla(237, 53.3%, 38.2%, 0.97)" stroke-width="1.5"></path><path d="M826.38 664.47L824.08 561.36" stroke="hsla(237, 53.3%, 38.2%, 0.97)" stroke-width="1.5"></path><path d="M826.38 664.47L938.97 673.48" stroke="hsla(237, 53.3%, 38.2%, 0.97)" stroke-width="1.5"></path><path d="M826.38 664.47L951.59 505.3" stroke="hsla(237, 53.3%, 38.2%, 0.97)" stroke-width="1.5"></path><path d="M1297.53 248.88L1297.53 248.88" stroke="hsla(237, 53.3%, 38.2%, 0.97)" stroke-width="1.5"></path><path d="M1297.53 248.88L1295.85 384.6" stroke="hsla(237, 53.3%, 38.2%, 0.97)" stroke-width="1.5"></path><path d="M1297.53 248.88L1434.37 208.41" stroke="hsla(237, 53.3%, 38.2%, 0.97)" stroke-width="1.5"></path><path d="M1297.53 248.88L1396.61 353.79" stroke="hsla(237, 53.3%, 38.2%, 0.97)" stroke-width="1.5"></path><path d="M1297.53 248.88L1096.44 205.54" stroke="hsla(237, 53.3%, 38.2%, 0.97)" stroke-width="1.5"></path><path d="M1280.91 534.98L1280.91 534.98" stroke="hsla(237, 53.3%, 38.2%, 0.97)" stroke-width="1.5"></path><path d="M1280.91 534.98L1142.86 509.81" stroke="hsla(237, 53.3%, 38.2%, 0.97)" stroke-width="1.5"></path><path d="M1280.91 534.98L1424.26 508.27" stroke="hsla(237, 53.3%, 38.2%, 0.97)" stroke-width="1.5"></path><path d="M1280.91 534.98L1295.85 384.6" stroke="hsla(237, 53.3%, 38.2%, 0.97)" stroke-width="1.5"></path><path d="M1258.12 702.88L1258.12 702.88" stroke="hsla(237, 53.3%, 38.2%, 0.97)" stroke-width="1.5"></path><path d="M1258.12 702.88L1158.6 667.57" stroke="hsla(237, 53.3%, 38.2%, 0.97)" stroke-width="1.5"></path><path d="M1258.12 702.88L1415.15 689.92" stroke="hsla(237, 53.3%, 38.2%, 0.97)" stroke-width="1.5"></path><path d="M1258.12 702.88L1280.91 534.98" stroke="hsla(237, 53.3%, 38.2%, 0.97)" stroke-width="1.5"></path><path d="M1415.15 689.92L1415.15 689.92" stroke="hsla(237, 53.3%, 38.2%, 0.97)" stroke-width="1.5"></path><path d="M1415.15 689.92L1556.98 683.05" stroke="hsla(237, 53.3%, 38.2%, 0.97)" stroke-width="1.5"></path><path d="M1415.15 689.92L1424.26 508.27" stroke="hsla(237, 53.3%, 38.2%, 0.97)" stroke-width="1.5"></path><path d="M-53.88 701.3L-53.88 701.3" stroke="hsla(237, 53.3%, 38.2%, 0.97)" stroke-width="1.5"></path><path d="M-53.88 701.3L103.89 699.3" stroke="hsla(237, 53.3%, 38.2%, 0.97)" stroke-width="1.5"></path><path d="M-53.88 701.3L43.19 504.52" stroke="hsla(237, 53.3%, 38.2%, 0.97)" stroke-width="1.5"></path><path d="M-53.88 701.3L211.39 677.53" stroke="hsla(237, 53.3%, 38.2%, 0.97)" stroke-width="1.5"></path><path d="M-53.88 701.3L219.74 556.38" stroke="hsla(237, 53.3%, 38.2%, 0.97)" stroke-width="1.5"></path><path d="M43.19 504.52L43.19 504.52" stroke="hsla(237, 53.3%, 38.2%, 0.97)" stroke-width="1.5"></path><path d="M43.19 504.52L219.74 556.38" stroke="hsla(237, 53.3%, 38.2%, 0.97)" stroke-width="1.5"></path><path d="M43.19 504.52L103.89 699.3" stroke="hsla(237, 53.3%, 38.2%, 0.97)" stroke-width="1.5"></path><path d="M43.19 504.52L211.39 677.53" stroke="hsla(237, 53.3%, 38.2%, 0.97)" stroke-width="1.5"></path><path d="M43.19 504.52L369.31 511.3" stroke="hsla(237, 53.3%, 38.2%, 0.97)" stroke-width="1.5"></path><path d="M103.89 699.3L103.89 699.3" stroke="hsla(237, 53.3%, 38.2%, 0.97)" stroke-width="1.5"></path><path d="M103.89 699.3L211.39 677.53" stroke="hsla(237, 53.3%, 38.2%, 0.97)" stroke-width="1.5"></path><path d="M103.89 699.3L219.74 556.38" stroke="hsla(237, 53.3%, 38.2%, 0.97)" stroke-width="1.5"></path><path d="M219.74 556.38L219.74 556.38" stroke="hsla(237, 53.3%, 38.2%, 0.97)" stroke-width="1.5"></path><path d="M219.74 556.38L211.39 677.53" stroke="hsla(237, 53.3%, 38.2%, 0.97)" stroke-width="1.5"></path><path d="M219.74 556.38L369.31 511.3" stroke="hsla(237, 53.3%, 38.2%, 0.97)" stroke-width="1.5"></path><path d="M211.39 677.53L211.39 677.53" stroke="hsla(237, 53.3%, 38.2%, 0.97)" stroke-width="1.5"></path><path d="M211.39 677.53L342.18 679.35" stroke="hsla(237, 53.3%, 38.2%, 0.97)" stroke-width="1.5"></path><path d="M211.39 677.53L369.31 511.3" stroke="hsla(237, 53.3%, 38.2%, 0.97)" stroke-width="1.5"></path><path d="M369.31 511.3L369.31 511.3" stroke="hsla(237, 53.3%, 38.2%, 0.97)" stroke-width="1.5"></path><path d="M369.31 511.3L518.13 532.65" stroke="hsla(237, 53.3%, 38.2%, 0.97)" stroke-width="1.5"></path><path d="M369.31 511.3L342.18 679.35" stroke="hsla(237, 53.3%, 38.2%, 0.97)" stroke-width="1.5"></path><path d="M342.18 679.35L342.18 679.35" stroke="hsla(237, 53.3%, 38.2%, 0.97)" stroke-width="1.5"></path><path d="M342.18 679.35L489.82 639.11" stroke="hsla(237, 53.3%, 38.2%, 0.97)" stroke-width="1.5"></path><path d="M342.18 679.35L219.74 556.38" stroke="hsla(237, 53.3%, 38.2%, 0.97)" stroke-width="1.5"></path><path d="M342.18 679.35L518.13 532.65" stroke="hsla(237, 53.3%, 38.2%, 0.97)" stroke-width="1.5"></path><path d="M342.18 679.35L103.89 699.3" stroke="hsla(237, 53.3%, 38.2%, 0.97)" stroke-width="1.5"></path><path d="M518.13 532.65L518.13 532.65" stroke="hsla(237, 53.3%, 38.2%, 0.97)" stroke-width="1.5"></path><path d="M824.08 561.36L824.08 561.36" stroke="hsla(237, 53.3%, 38.2%, 0.97)" stroke-width="1.5"></path><path d="M824.08 561.36L951.59 505.3" stroke="hsla(237, 53.3%, 38.2%, 0.97)" stroke-width="1.5"></path><path d="M824.08 561.36L938.97 673.48" stroke="hsla(237, 53.3%, 38.2%, 0.97)" stroke-width="1.5"></path><path d="M989.09 245.01L989.09 245.01" stroke="hsla(237, 53.3%, 38.2%, 0.97)" stroke-width="1.5"></path><path d="M989.09 245.01L986.67 353.09" stroke="hsla(237, 53.3%, 38.2%, 0.97)" stroke-width="1.5"></path><path d="M989.09 245.01L1096.44 205.54" stroke="hsla(237, 53.3%, 38.2%, 0.97)" stroke-width="1.5"></path><path d="M989.09 245.01L951.59 505.3" stroke="hsla(237, 53.3%, 38.2%, 0.97)" stroke-width="1.5"></path><path d="M989.09 245.01L1142.86 509.81" stroke="hsla(237, 53.3%, 38.2%, 0.97)" stroke-width="1.5"></path><path d="M986.67 353.09L986.67 353.09" stroke="hsla(237, 53.3%, 38.2%, 0.97)" stroke-width="1.5"></path><path d="M986.67 353.09L951.59 505.3" stroke="hsla(237, 53.3%, 38.2%, 0.97)" stroke-width="1.5"></path><path d="M951.59 505.3L951.59 505.3" stroke="hsla(237, 53.3%, 38.2%, 0.97)" stroke-width="1.5"></path><path d="M951.59 505.3L938.97 673.48" stroke="hsla(237, 53.3%, 38.2%, 0.97)" stroke-width="1.5"></path><path d="M951.59 505.3L1142.86 509.81" stroke="hsla(237, 53.3%, 38.2%, 0.97)" stroke-width="1.5"></path><path d="M938.97 673.48L938.97 673.48" stroke="hsla(237, 53.3%, 38.2%, 0.97)" stroke-width="1.5"></path><path d="M1096.44 205.54L1096.44 205.54" stroke="hsla(237, 53.3%, 38.2%, 0.97)" stroke-width="1.5"></path><path d="M1096.44 205.54L986.67 353.09" stroke="hsla(237, 53.3%, 38.2%, 0.97)" stroke-width="1.5"></path><path d="M1096.44 205.54L1295.85 384.6" stroke="hsla(237, 53.3%, 38.2%, 0.97)" stroke-width="1.5"></path><path d="M1096.44 205.54L1310.08 39.96" stroke="hsla(237, 53.3%, 38.2%, 0.97)" stroke-width="1.5"></path><path d="M1142.86 509.81L1142.86 509.81" stroke="hsla(237, 53.3%, 38.2%, 0.97)" stroke-width="1.5"></path><path d="M1142.86 509.81L1158.6 667.57" stroke="hsla(237, 53.3%, 38.2%, 0.97)" stroke-width="1.5"></path><path d="M1142.86 509.81L1295.85 384.6" stroke="hsla(237, 53.3%, 38.2%, 0.97)" stroke-width="1.5"></path><path d="M1158.6 667.57L1158.6 667.57" stroke="hsla(237, 53.3%, 38.2%, 0.97)" stroke-width="1.5"></path><path d="M1280 -41.49L1280 -41.49" stroke="hsla(237, 53.3%, 38.2%, 0.97)" stroke-width="1.5"></path><path d="M1280 -41.49L1310.08 39.96" stroke="hsla(237, 53.3%, 38.2%, 0.97)" stroke-width="1.5"></path><path d="M1280 -41.49L1413.83 -87.57" stroke="hsla(237, 53.3%, 38.2%, 0.97)" stroke-width="1.5"></path><path d="M1280 -41.49L1439.26 79.92" stroke="hsla(237, 53.3%, 38.2%, 0.97)" stroke-width="1.5"></path><path d="M1280 -41.49L1560.16 -60.29" stroke="hsla(237, 53.3%, 38.2%, 0.97)" stroke-width="1.5"></path><path d="M1310.08 39.96L1310.08 39.96" stroke="hsla(237, 53.3%, 38.2%, 0.97)" stroke-width="1.5"></path><path d="M1310.08 39.96L1439.26 79.92" stroke="hsla(237, 53.3%, 38.2%, 0.97)" stroke-width="1.5"></path><path d="M1310.08 39.96L1413.83 -87.57" stroke="hsla(237, 53.3%, 38.2%, 0.97)" stroke-width="1.5"></path><path d="M1310.08 39.96L1297.53 248.88" stroke="hsla(237, 53.3%, 38.2%, 0.97)" stroke-width="1.5"></path><path d="M1310.08 39.96L1434.37 208.41" stroke="hsla(237, 53.3%, 38.2%, 0.97)" stroke-width="1.5"></path><path d="M1310.08 39.96L1560.16 -60.29" stroke="hsla(237, 53.3%, 38.2%, 0.97)" stroke-width="1.5"></path><path d="M1295.85 384.6L1295.85 384.6" stroke="hsla(237, 53.3%, 38.2%, 0.97)" stroke-width="1.5"></path><path d="M1295.85 384.6L1396.61 353.79" stroke="hsla(237, 53.3%, 38.2%, 0.97)" stroke-width="1.5"></path><path d="M1295.85 384.6L1424.26 508.27" stroke="hsla(237, 53.3%, 38.2%, 0.97)" stroke-width="1.5"></path><path d="M1413.83 -87.57L1413.83 -87.57" stroke="hsla(237, 53.3%, 38.2%, 0.97)" stroke-width="1.5"></path><path d="M1413.83 -87.57L1560.16 -60.29" stroke="hsla(237, 53.3%, 38.2%, 0.97)" stroke-width="1.5"></path><path d="M1439.26 79.92L1439.26 79.92" stroke="hsla(237, 53.3%, 38.2%, 0.97)" stroke-width="1.5"></path><path d="M1439.26 79.92L1434.37 208.41" stroke="hsla(237, 53.3%, 38.2%, 0.97)" stroke-width="1.5"></path><path d="M1439.26 79.92L1591.54 76.28" stroke="hsla(237, 53.3%, 38.2%, 0.97)" stroke-width="1.5"></path><path d="M1434.37 208.41L1434.37 208.41" stroke="hsla(237, 53.3%, 38.2%, 0.97)" stroke-width="1.5"></path><path d="M1434.37 208.41L1576.36 188.46" stroke="hsla(237, 53.3%, 38.2%, 0.97)" stroke-width="1.5"></path><path d="M1434.37 208.41L1396.61 353.79" stroke="hsla(237, 53.3%, 38.2%, 0.97)" stroke-width="1.5"></path><path d="M1434.37 208.41L1591.54 76.28" stroke="hsla(237, 53.3%, 38.2%, 0.97)" stroke-width="1.5"></path><path d="M1396.61 353.79L1396.61 353.79" stroke="hsla(237, 53.3%, 38.2%, 0.97)" stroke-width="1.5"></path><path d="M1424.26 508.27L1424.26 508.27" stroke="hsla(237, 53.3%, 38.2%, 0.97)" stroke-width="1.5"></path><path d="M1424.26 508.27L1396.61 353.79" stroke="hsla(237, 53.3%, 38.2%, 0.97)" stroke-width="1.5"></path><path d="M1560.16 -60.29L1560.16 -60.29" stroke="hsla(237, 53.3%, 38.2%, 0.97)" stroke-width="1.5"></path><path d="M1560.16 -60.29L1591.54 76.28" stroke="hsla(237, 53.3%, 38.2%, 0.97)" stroke-width="1.5"></path><path d="M1591.54 76.28L1591.54 76.28" stroke="hsla(237, 53.3%, 38.2%, 0.97)" stroke-width="1.5"></path><path d="M1591.54 76.28L1576.36 188.46" stroke="hsla(237, 53.3%, 38.2%, 0.97)" stroke-width="1.5"></path><path d="M1576.36 188.46L1576.36 188.46" stroke="hsla(237, 53.3%, 38.2%, 0.97)" stroke-width="1.5"></path><path d="M1576.36 188.46L1439.26 79.92" stroke="hsla(237, 53.3%, 38.2%, 0.97)" stroke-width="1.5"></path><path d="M1576.36 188.46L1560.15 382.34" stroke="hsla(237, 53.3%, 38.2%, 0.97)" stroke-width="1.5"></path><path d="M1560.15 382.34L1560.15 382.34" stroke="hsla(237, 53.3%, 38.2%, 0.97)" stroke-width="1.5"></path><path d="M1560.15 382.34L1396.61 353.79" stroke="hsla(237, 53.3%, 38.2%, 0.97)" stroke-width="1.5"></path><path d="M1560.15 382.34L1600.92 554.31" stroke="hsla(237, 53.3%, 38.2%, 0.97)" stroke-width="1.5"></path><path d="M1560.15 382.34L1424.26 508.27" stroke="hsla(237, 53.3%, 38.2%, 0.97)" stroke-width="1.5"></path><path d="M1560.15 382.34L1434.37 208.41" stroke="hsla(237, 53.3%, 38.2%, 0.97)" stroke-width="1.5"></path><path d="M1600.92 554.31L1600.92 554.31" stroke="hsla(237, 53.3%, 38.2%, 0.97)" stroke-width="1.5"></path><path d="M1600.92 554.31L1556.98 683.05" stroke="hsla(237, 53.3%, 38.2%, 0.97)" stroke-width="1.5"></path><path d="M1600.92 554.31L1424.26 508.27" stroke="hsla(237, 53.3%, 38.2%, 0.97)" stroke-width="1.5"></path><path d="M1600.92 554.31L1415.15 689.92" stroke="hsla(237, 53.3%, 38.2%, 0.97)" stroke-width="1.5"></path><path d="M1556.98 683.05L1556.98 683.05" stroke="hsla(237, 53.3%, 38.2%, 0.97)" stroke-width="1.5"></path><path d="M1556.98 683.05L1424.26 508.27" stroke="hsla(237, 53.3%, 38.2%, 0.97)" stroke-width="1.5"></path><path d="M1556.98 683.05L1258.12 702.88" stroke="hsla(237, 53.3%, 38.2%, 0.97)" stroke-width="1.5"></path><circle r="25" cx="489.82" cy="639.11" fill="url(&quot;#SvgjsRadialGradient1015&quot;)"></circle><circle r="25" cx="654.64" cy="561.32" fill="url(&quot;#SvgjsRadialGradient1015&quot;)"></circle><circle r="25" cx="695.78" cy="708.78" fill="url(&quot;#SvgjsRadialGradient1015&quot;)"></circle><circle r="25" cx="814.04" cy="408.06" fill="url(&quot;#SvgjsRadialGradient1015&quot;)"></circle><circle r="25" cx="826.38" cy="664.47" fill="url(&quot;#SvgjsRadialGradient1015&quot;)"></circle><circle r="25" cx="1297.53" cy="248.88" fill="url(&quot;#SvgjsRadialGradient1015&quot;)"></circle><circle r="25" cx="1280.91" cy="534.98" fill="url(&quot;#SvgjsRadialGradient1015&quot;)"></circle><circle r="25" cx="1258.12" cy="702.88" fill="url(&quot;#SvgjsRadialGradient1015&quot;)"></circle><circle r="25" cx="1415.15" cy="689.92" fill="url(&quot;#SvgjsRadialGradient1015&quot;)"></circle><circle r="5" cx="-53.88" cy="701.3" fill="rgba(148, 150, 187, 0.985)"></circle><circle r="5" cx="43.19" cy="504.52" fill="rgba(148, 150, 187, 0.985)"></circle><circle r="5" cx="103.89" cy="699.3" fill="rgba(148, 150, 187, 0.985)"></circle><circle r="5" cx="219.74" cy="556.38" fill="rgba(148, 150, 187, 0.985)"></circle><circle r="5" cx="211.39" cy="677.53" fill="rgba(148, 150, 187, 0.985)"></circle><circle r="5" cx="369.31" cy="511.3" fill="rgba(148, 150, 187, 0.985)"></circle><circle r="5" cx="342.18" cy="679.35" fill="rgba(148, 150, 187, 0.985)"></circle><circle r="5" cx="518.13" cy="532.65" fill="rgba(148, 150, 187, 0.985)"></circle><circle r="5" cx="824.08" cy="561.36" fill="rgba(148, 150, 187, 0.985)"></circle><circle r="5" cx="989.09" cy="245.01" fill="rgba(148, 150, 187, 0.985)"></circle><circle r="5" cx="986.67" cy="353.09" fill="rgba(148, 150, 187, 0.985)"></circle><circle r="5" cx="951.59" cy="505.3" fill="rgba(148, 150, 187, 0.985)"></circle><circle r="5" cx="938.97" cy="673.48" fill="rgba(148, 150, 187, 0.985)"></circle><circle r="5" cx="1096.44" cy="205.54" fill="rgba(148, 150, 187, 0.985)"></circle><circle r="5" cx="1142.86" cy="509.81" fill="rgba(148, 150, 187, 0.985)"></circle><circle r="5" cx="1158.6" cy="667.57" fill="rgba(148, 150, 187, 0.985)"></circle><circle r="5" cx="1280" cy="-41.49" fill="rgba(148, 150, 187, 0.985)"></circle><circle r="5" cx="1310.08" cy="39.96" fill="rgba(148, 150, 187, 0.985)"></circle><circle r="5" cx="1295.85" cy="384.6" fill="rgba(148, 150, 187, 0.985)"></circle><circle r="5" cx="1413.83" cy="-87.57" fill="rgba(148, 150, 187, 0.985)"></circle><circle r="5" cx="1439.26" cy="79.92" fill="rgba(148, 150, 187, 0.985)"></circle><circle r="5" cx="1434.37" cy="208.41" fill="rgba(148, 150, 187, 0.985)"></circle><circle r="5" cx="1396.61" cy="353.79" fill="rgba(148, 150, 187, 0.985)"></circle><circle r="5" cx="1424.26" cy="508.27" fill="rgba(148, 150, 187, 0.985)"></circle><circle r="5" cx="1560.16" cy="-60.29" fill="rgba(148, 150, 187, 0.985)"></circle><circle r="5" cx="1591.54" cy="76.28" fill="rgba(148, 150, 187, 0.985)"></circle><circle r="5" cx="1576.36" cy="188.46" fill="rgba(148, 150, 187, 0.985)"></circle><circle r="5" cx="1560.15" cy="382.34" fill="rgba(148, 150, 187, 0.985)"></circle><circle r="5" cx="1600.92" cy="554.31" fill="rgba(148, 150, 187, 0.985)"></circle><circle r="5" cx="1556.98" cy="683.05" fill="rgba(148, 150, 187, 0.985)"></circle></g><defs><mask id="SvgjsMask1014"><rect width="1440" height="560" fill="#ffffff"></rect></mask><radialGradient id="SvgjsRadialGradient1015"><stop stop-color="#ffffff" offset="0.1"></stop><stop stop-color="rgba(35, 39, 115, 0.97)" offset="0.2"></stop><stop stop-color="rgba(35, 39, 115, 0)" offset="1"></stop></radialGradient></defs></svg>